<mxfile host="Electron" agent="Mozilla/5.0 (Windows NT 10.0; Win64; x64) AppleWebKit/537.36 (KHTML, like Gecko) draw.io/24.7.17 Chrome/128.0.6613.36 Electron/32.0.1 Safari/537.36" version="24.7.17">
  <diagram name="Page-1" id="b5HxOsTOOe5hyNckpdll">
    <mxGraphModel dx="988" dy="573" grid="1" gridSize="10" guides="1" tooltips="1" connect="1" arrows="1" fold="1" page="1" pageScale="1" pageWidth="1654" pageHeight="2336" math="0" shadow="0">
      <root>
        <mxCell id="0" />
        <mxCell id="1" parent="0" />
        <mxCell id="KVAP_4HlwHjWqDhnZpln-1" value="GardenBro" style="shape=rect;html=1;verticalAlign=top;fontStyle=1;whiteSpace=wrap;align=center;" vertex="1" parent="1">
          <mxGeometry x="400" y="250" width="590" height="490" as="geometry" />
        </mxCell>
        <mxCell id="KVAP_4HlwHjWqDhnZpln-4" style="edgeStyle=orthogonalEdgeStyle;rounded=0;orthogonalLoop=1;jettySize=auto;html=1;endArrow=none;endFill=0;" edge="1" parent="1" source="KVAP_4HlwHjWqDhnZpln-2" target="KVAP_4HlwHjWqDhnZpln-5">
          <mxGeometry relative="1" as="geometry">
            <mxPoint x="450" y="500" as="targetPoint" />
          </mxGeometry>
        </mxCell>
        <mxCell id="KVAP_4HlwHjWqDhnZpln-18" style="rounded=0;orthogonalLoop=1;jettySize=auto;html=1;endArrow=none;endFill=0;" edge="1" parent="1" source="KVAP_4HlwHjWqDhnZpln-2" target="KVAP_4HlwHjWqDhnZpln-17">
          <mxGeometry relative="1" as="geometry" />
        </mxCell>
        <mxCell id="KVAP_4HlwHjWqDhnZpln-2" value="Uživatel" style="shape=umlActor;html=1;verticalLabelPosition=bottom;verticalAlign=top;align=center;" vertex="1" parent="1">
          <mxGeometry x="300" y="470" width="30" height="60" as="geometry" />
        </mxCell>
        <mxCell id="KVAP_4HlwHjWqDhnZpln-9" style="edgeStyle=orthogonalEdgeStyle;rounded=0;orthogonalLoop=1;jettySize=auto;html=1;dashed=1;startArrow=classic;startFill=1;endArrow=none;endFill=0;" edge="1" parent="1" source="KVAP_4HlwHjWqDhnZpln-5" target="KVAP_4HlwHjWqDhnZpln-8">
          <mxGeometry relative="1" as="geometry" />
        </mxCell>
        <mxCell id="KVAP_4HlwHjWqDhnZpln-10" value="Text" style="edgeLabel;html=1;align=center;verticalAlign=middle;resizable=0;points=[];" vertex="1" connectable="0" parent="KVAP_4HlwHjWqDhnZpln-9">
          <mxGeometry x="-0.1714" y="1" relative="1" as="geometry">
            <mxPoint as="offset" />
          </mxGeometry>
        </mxCell>
        <mxCell id="KVAP_4HlwHjWqDhnZpln-11" value="extend" style="edgeLabel;html=1;align=center;verticalAlign=middle;resizable=0;points=[];" vertex="1" connectable="0" parent="KVAP_4HlwHjWqDhnZpln-9">
          <mxGeometry x="-0.1133" y="4" relative="1" as="geometry">
            <mxPoint as="offset" />
          </mxGeometry>
        </mxCell>
        <mxCell id="KVAP_4HlwHjWqDhnZpln-5" value="Zapnout párovací režim" style="ellipse;whiteSpace=wrap;html=1;" vertex="1" parent="1">
          <mxGeometry x="490" y="465" width="140" height="70" as="geometry" />
        </mxCell>
        <mxCell id="KVAP_4HlwHjWqDhnZpln-8" value="Vybrat modul pro připojení" style="ellipse;whiteSpace=wrap;html=1;" vertex="1" parent="1">
          <mxGeometry x="720" y="465" width="140" height="70" as="geometry" />
        </mxCell>
        <mxCell id="KVAP_4HlwHjWqDhnZpln-15" style="edgeStyle=orthogonalEdgeStyle;rounded=0;orthogonalLoop=1;jettySize=auto;html=1;dashed=1;" edge="1" parent="1" source="KVAP_4HlwHjWqDhnZpln-14" target="KVAP_4HlwHjWqDhnZpln-8">
          <mxGeometry relative="1" as="geometry" />
        </mxCell>
        <mxCell id="KVAP_4HlwHjWqDhnZpln-16" value="extend" style="edgeLabel;html=1;align=center;verticalAlign=middle;resizable=0;points=[];" vertex="1" connectable="0" parent="KVAP_4HlwHjWqDhnZpln-15">
          <mxGeometry x="-0.08" y="6" relative="1" as="geometry">
            <mxPoint as="offset" />
          </mxGeometry>
        </mxCell>
        <mxCell id="KVAP_4HlwHjWqDhnZpln-14" value="Zpráva o úspěšném připojení" style="ellipse;whiteSpace=wrap;html=1;" vertex="1" parent="1">
          <mxGeometry x="720" y="310" width="140" height="70" as="geometry" />
        </mxCell>
        <mxCell id="KVAP_4HlwHjWqDhnZpln-17" value="Odpojit modul" style="ellipse;whiteSpace=wrap;html=1;" vertex="1" parent="1">
          <mxGeometry x="490" y="600" width="140" height="70" as="geometry" />
        </mxCell>
      </root>
    </mxGraphModel>
  </diagram>
</mxfile>
